<svg xmlns="http://www.w3.org/2000/svg" xmlns:xlink="http://www.w3.org/1999/xlink" width="100" zoomAndPan="magnify" viewBox="0 0 75 74.999997" height="100" preserveAspectRatio="xMidYMid meet" version="1.2"><defs><clipPath id="ea01de6b65"><path d="M -13.230469 16.894531 L 58.789062 -13.054688 L 88.453125 58.269531 L 16.433594 88.222656 Z M -13.230469 16.894531 "/></clipPath><clipPath id="7a6da653aa"><path d="M -13.230469 16.894531 L 58.789062 -13.054688 L 88.453125 58.269531 L 16.433594 88.222656 Z M -13.230469 16.894531 "/></clipPath><clipPath id="fe03a6287f"><path d="M -13.230469 16.894531 L 58.789062 -13.054688 L 88.453125 58.269531 L 16.433594 88.222656 Z M -13.230469 16.894531 "/></clipPath><clipPath id="3119cc9a73"><path d="M -13.222656 16.890625 L 58.460938 -12.917969 L 88.125 58.410156 L 16.441406 88.21875 Z M -13.222656 16.890625 "/></clipPath></defs><g id="177c55847c"><rect x="0" width="75" y="0" height="74.999997" style="fill:#ffffff;fill-opacity:1;stroke:none;"/><rect x="0" width="75" y="0" height="74.999997" style="fill:#0d324a;fill-opacity:1;stroke:none;"/><g clip-rule="nonzero" clip-path="url(#ea01de6b65)"><g clip-rule="nonzero" clip-path="url(#7a6da653aa)"><g clip-rule="nonzero" clip-path="url(#fe03a6287f)"><g clip-rule="nonzero" clip-path="url(#3119cc9a73)"><path style="fill:none;stroke-width:1;stroke-linecap:butt;stroke-linejoin:miter;stroke:#dae24b;stroke-opacity:1;stroke-miterlimit:4;" d="M 73.988378 2.193971 L 73.990167 2.189675 C 76.105877 0.0654684 79.541385 0.0663908 81.663172 2.192057 L 90.501026 11.051983 C 92.324829 12.887629 92.596578 15.736325 91.197593 17.896195 L 91.051166 18.102417 C 84.082082 27.89475 80.838749 37.657394 80.883953 47.349846 C 80.926645 57.036216 84.256768 66.606589 90.35325 76.015866 L 90.740816 75.763677 L 90.35325 76.015866 C 91.752262 78.168855 91.451363 81.011492 89.640044 82.828814 L 82.586001 89.905448 C 80.468501 92.033951 77.032993 92.033028 74.912995 89.903067 L 51.278128 66.090796 C 48.769776 63.572822 44.697481 63.574473 42.185341 66.0933 L 18.233389 89.903052 C 16.11589 92.031554 12.680381 92.030631 10.558594 89.904965 L 2.092954 81.411233 C 0.222901 79.541264 -0.0310001 76.589137 1.495198 74.426676 C 8.360406 64.702047 11.636621 54.811985 11.62034 44.965278 C 11.60836 35.120359 8.304989 25.364599 2.086279 15.909599 C 0.66576 13.747678 0.959122 10.886795 2.778319 9.062668 L 9.72708 2.093461 C 11.84279 -0.0307459 15.280087 -0.034119 17.395784 2.094056 C 17.400085 2.095843 17.400085 2.095843 17.400085 2.095843 L 40.786137 26.263271 L 40.794739 26.266844 C 43.303091 28.784817 47.373598 28.787462 49.885738 26.268635 Z M 73.988378 2.193971 " transform="matrix(0.774226,-0.321986,0.322432,0.7753,-13.221579,16.891732)"/></g></g></g></g><path style=" stroke:none;fill-rule:nonzero;fill:#dae24b;fill-opacity:1;" d="M 56.25 27.449219 C 55.914062 27.28125 55.578125 27.28125 55.410156 27.449219 L 49.550781 31.96875 L 49.550781 29.960938 C 49.550781 27.28125 47.375 25.105469 44.695312 25.105469 L 23.097656 25.105469 C 20.417969 25.105469 18.242188 27.28125 18.242188 29.960938 L 18.242188 45.03125 C 18.242188 47.710938 20.417969 49.886719 23.097656 49.886719 L 44.695312 49.886719 C 47.375 49.886719 49.550781 47.710938 49.550781 45.03125 L 49.550781 43.019531 L 55.410156 47.542969 C 55.578125 47.710938 55.914062 47.710938 56.25 47.542969 C 56.582031 47.375 56.75 47.207031 56.75 46.871094 L 56.75 28.121094 C 56.75 27.785156 56.582031 27.617188 56.25 27.449219 Z M 56.25 27.449219 "/><path style=" stroke:none;fill-rule:nonzero;fill:#0d324a;fill-opacity:1;" d="M 25.359375 29.699219 C 25.359375 30 25.300781 30.289062 25.1875 30.570312 C 25.074219 30.847656 24.914062 31.09375 24.703125 31.304688 C 24.492188 31.519531 24.25 31.683594 23.976562 31.796875 C 23.699219 31.914062 23.414062 31.96875 23.117188 31.96875 C 22.820312 31.96875 22.535156 31.914062 22.257812 31.796875 C 21.984375 31.683594 21.742188 31.519531 21.53125 31.304688 C 21.320312 31.09375 21.160156 30.847656 21.046875 30.570312 C 20.933594 30.289062 20.875 30 20.875 29.699219 C 20.875 29.398438 20.933594 29.109375 21.046875 28.832031 C 21.160156 28.554688 21.320312 28.308594 21.53125 28.09375 C 21.742188 27.882812 21.984375 27.71875 22.257812 27.601562 C 22.535156 27.488281 22.820312 27.429688 23.117188 27.429688 C 23.414062 27.429688 23.699219 27.488281 23.976562 27.601562 C 24.25 27.71875 24.492188 27.882812 24.703125 28.09375 C 24.914062 28.308594 25.074219 28.554688 25.1875 28.832031 C 25.300781 29.109375 25.359375 29.398438 25.359375 29.699219 Z M 25.359375 29.699219 "/></g></svg>